<mxfile host="65bd71144e">
    <diagram id="gMBADjS6sapjuqG_sJc8" name="Page-1">
        <mxGraphModel dx="2768" dy="1587" grid="1" gridSize="10" guides="1" tooltips="1" connect="1" arrows="1" fold="1" page="1" pageScale="1" pageWidth="850" pageHeight="1100" math="0" shadow="0">
            <root>
                <mxCell id="0"/>
                <mxCell id="1" parent="0"/>
                <mxCell id="22" value="DATE_OF_BIRTH" style="rounded=0;whiteSpace=wrap;html=1;" vertex="1" parent="1">
                    <mxGeometry x="780" y="150" width="120" height="60" as="geometry"/>
                </mxCell>
                <mxCell id="8" value="" style="group" parent="1" vertex="1" connectable="0">
                    <mxGeometry x="60" y="150" width="720" height="60" as="geometry"/>
                </mxCell>
                <mxCell id="2" value="&lt;u&gt;PERSON_ID&lt;/u&gt;" style="rounded=0;whiteSpace=wrap;html=1;" parent="8" vertex="1">
                    <mxGeometry width="120" height="60" as="geometry"/>
                </mxCell>
                <mxCell id="3" value="FIRST_NAME" style="rounded=0;whiteSpace=wrap;html=1;" parent="8" vertex="1">
                    <mxGeometry x="120" width="120" height="60" as="geometry"/>
                </mxCell>
                <mxCell id="4" value="MIDDLE_NAME" style="rounded=0;whiteSpace=wrap;html=1;" parent="8" vertex="1">
                    <mxGeometry x="240" width="120" height="60" as="geometry"/>
                </mxCell>
                <mxCell id="5" value="LAST_NAME" style="rounded=0;whiteSpace=wrap;html=1;" parent="8" vertex="1">
                    <mxGeometry x="360" width="120" height="60" as="geometry"/>
                </mxCell>
                <mxCell id="6" value="ADDRESS" style="rounded=0;whiteSpace=wrap;html=1;" parent="8" vertex="1">
                    <mxGeometry x="480" width="120" height="60" as="geometry"/>
                </mxCell>
                <mxCell id="7" value="GENDER" style="rounded=0;whiteSpace=wrap;html=1;" parent="8" vertex="1">
                    <mxGeometry x="600" width="120" height="60" as="geometry"/>
                </mxCell>
                <mxCell id="9" value="PERSON" style="text;html=1;strokeColor=none;fillColor=none;align=center;verticalAlign=middle;whiteSpace=wrap;rounded=0;" parent="1" vertex="1">
                    <mxGeometry x="60" y="120" width="60" height="30" as="geometry"/>
                </mxCell>
                <mxCell id="41" style="edgeStyle=none;html=1;exitX=0;exitY=0.5;exitDx=0;exitDy=0;entryX=0;entryY=0.5;entryDx=0;entryDy=0;" edge="1" parent="1" source="33" target="2">
                    <mxGeometry relative="1" as="geometry">
                        <Array as="points">
                            <mxPoint x="30" y="320"/>
                            <mxPoint x="30" y="180"/>
                        </Array>
                    </mxGeometry>
                </mxCell>
                <mxCell id="33" value="&lt;u&gt;PERSON_ID&lt;/u&gt;" style="rounded=0;whiteSpace=wrap;html=1;" vertex="1" parent="1">
                    <mxGeometry x="60" y="290" width="120" height="60" as="geometry"/>
                </mxCell>
                <mxCell id="34" value="PERSON_PHONE_NUMBER" style="text;html=1;strokeColor=none;fillColor=none;align=center;verticalAlign=middle;whiteSpace=wrap;rounded=0;" vertex="1" parent="1">
                    <mxGeometry x="60" y="260" width="190" height="30" as="geometry"/>
                </mxCell>
                <mxCell id="35" value="&lt;u&gt;PHONE_NUMBER&lt;/u&gt;" style="rounded=0;whiteSpace=wrap;html=1;" vertex="1" parent="1">
                    <mxGeometry x="180" y="290" width="120" height="60" as="geometry"/>
                </mxCell>
                <mxCell id="44" style="edgeStyle=none;html=1;exitX=0;exitY=0.5;exitDx=0;exitDy=0;entryX=0;entryY=0.5;entryDx=0;entryDy=0;" edge="1" parent="1" source="42" target="2">
                    <mxGeometry relative="1" as="geometry">
                        <Array as="points">
                            <mxPoint x="-10" y="490"/>
                            <mxPoint x="-10" y="180"/>
                        </Array>
                    </mxGeometry>
                </mxCell>
                <mxCell id="42" value="&lt;u&gt;PERSON_ID&lt;/u&gt;" style="rounded=0;whiteSpace=wrap;html=1;" vertex="1" parent="1">
                    <mxGeometry x="60" y="460" width="120" height="60" as="geometry"/>
                </mxCell>
                <mxCell id="43" value="MEMBER" style="text;html=1;strokeColor=none;fillColor=none;align=center;verticalAlign=middle;whiteSpace=wrap;rounded=0;" vertex="1" parent="1">
                    <mxGeometry x="60" y="430" width="60" height="30" as="geometry"/>
                </mxCell>
                <mxCell id="47" style="edgeStyle=none;html=1;exitX=0;exitY=0.5;exitDx=0;exitDy=0;entryX=0;entryY=0.5;entryDx=0;entryDy=0;" edge="1" parent="1" source="45" target="2">
                    <mxGeometry relative="1" as="geometry">
                        <Array as="points">
                            <mxPoint x="-50" y="620"/>
                            <mxPoint x="-50" y="180"/>
                        </Array>
                    </mxGeometry>
                </mxCell>
                <mxCell id="45" value="&lt;u&gt;PERSON_ID&lt;/u&gt;" style="rounded=0;whiteSpace=wrap;html=1;" vertex="1" parent="1">
                    <mxGeometry x="60" y="590" width="120" height="60" as="geometry"/>
                </mxCell>
                <mxCell id="46" value="EMPLOYEE" style="text;html=1;strokeColor=none;fillColor=none;align=center;verticalAlign=middle;whiteSpace=wrap;rounded=0;" vertex="1" parent="1">
                    <mxGeometry x="60" y="560" width="80" height="30" as="geometry"/>
                </mxCell>
                <mxCell id="48" value="START_DATE" style="rounded=0;whiteSpace=wrap;html=1;" vertex="1" parent="1">
                    <mxGeometry x="180" y="590" width="120" height="60" as="geometry"/>
                </mxCell>
                <mxCell id="49" value="DESIGNATION" style="rounded=0;whiteSpace=wrap;html=1;" vertex="1" parent="1">
                    <mxGeometry x="300" y="590" width="120" height="60" as="geometry"/>
                </mxCell>
                <mxCell id="60" style="edgeStyle=none;html=1;exitX=0.5;exitY=0;exitDx=0;exitDy=0;entryX=0.5;entryY=1;entryDx=0;entryDy=0;" edge="1" parent="1" source="52" target="45">
                    <mxGeometry relative="1" as="geometry"/>
                </mxCell>
                <mxCell id="52" value="&lt;u&gt;PERSON_ID&lt;/u&gt;" style="rounded=0;whiteSpace=wrap;html=1;" vertex="1" parent="1">
                    <mxGeometry x="60" y="740" width="120" height="60" as="geometry"/>
                </mxCell>
                <mxCell id="53" value="RECEPTIONISTS" style="text;html=1;strokeColor=none;fillColor=none;align=center;verticalAlign=middle;whiteSpace=wrap;rounded=0;" vertex="1" parent="1">
                    <mxGeometry x="60" y="710" width="110" height="30" as="geometry"/>
                </mxCell>
                <mxCell id="61" style="edgeStyle=none;html=1;exitX=0;exitY=0.5;exitDx=0;exitDy=0;entryX=0.5;entryY=1;entryDx=0;entryDy=0;" edge="1" parent="1" source="54" target="45">
                    <mxGeometry relative="1" as="geometry">
                        <Array as="points">
                            <mxPoint x="190" y="770"/>
                            <mxPoint x="190" y="710"/>
                            <mxPoint x="120" y="710"/>
                        </Array>
                    </mxGeometry>
                </mxCell>
                <mxCell id="54" value="&lt;u&gt;PERSON_ID&lt;/u&gt;" style="rounded=0;whiteSpace=wrap;html=1;" vertex="1" parent="1">
                    <mxGeometry x="208" y="740" width="120" height="60" as="geometry"/>
                </mxCell>
                <mxCell id="55" value="LIBRARY_SUPERVISORS" style="text;html=1;strokeColor=none;fillColor=none;align=center;verticalAlign=middle;whiteSpace=wrap;rounded=0;" vertex="1" parent="1">
                    <mxGeometry x="208" y="710" width="150" height="30" as="geometry"/>
                </mxCell>
                <mxCell id="63" style="edgeStyle=none;html=1;exitX=0;exitY=0.5;exitDx=0;exitDy=0;entryX=0.5;entryY=1;entryDx=0;entryDy=0;" edge="1" parent="1" source="56" target="45">
                    <mxGeometry relative="1" as="geometry">
                        <Array as="points">
                            <mxPoint x="370" y="770"/>
                            <mxPoint x="370" y="690"/>
                            <mxPoint x="120" y="690"/>
                        </Array>
                    </mxGeometry>
                </mxCell>
                <mxCell id="56" value="&lt;u&gt;PERSON_ID&lt;/u&gt;" style="rounded=0;whiteSpace=wrap;html=1;" vertex="1" parent="1">
                    <mxGeometry x="386" y="740" width="120" height="60" as="geometry"/>
                </mxCell>
                <mxCell id="57" value="CATALOGING_MANAGERS" style="text;html=1;strokeColor=none;fillColor=none;align=center;verticalAlign=middle;whiteSpace=wrap;rounded=0;" vertex="1" parent="1">
                    <mxGeometry x="386" y="710" width="160" height="30" as="geometry"/>
                </mxCell>
                <mxCell id="69" value="" style="group" vertex="1" connectable="0" parent="1">
                    <mxGeometry x="60" y="1446" width="480" height="90" as="geometry"/>
                </mxCell>
                <mxCell id="64" value="&lt;u&gt;COMMENT_ID&lt;/u&gt;" style="rounded=0;whiteSpace=wrap;html=1;" vertex="1" parent="69">
                    <mxGeometry y="30" width="120" height="60" as="geometry"/>
                </mxCell>
                <mxCell id="65" value="COMMENT_TIME" style="rounded=0;whiteSpace=wrap;html=1;" vertex="1" parent="69">
                    <mxGeometry x="120" y="30" width="120" height="60" as="geometry"/>
                </mxCell>
                <mxCell id="66" value="COMMENT_TEXT" style="rounded=0;whiteSpace=wrap;html=1;" vertex="1" parent="69">
                    <mxGeometry x="240" y="30" width="120" height="60" as="geometry"/>
                </mxCell>
                <mxCell id="67" value="RATING_SCORE" style="rounded=0;whiteSpace=wrap;html=1;" vertex="1" parent="69">
                    <mxGeometry x="360" y="30" width="120" height="60" as="geometry"/>
                </mxCell>
                <mxCell id="68" value="COMMENTS" style="text;html=1;strokeColor=none;fillColor=none;align=center;verticalAlign=middle;whiteSpace=wrap;rounded=0;" vertex="1" parent="69">
                    <mxGeometry width="80" height="30" as="geometry"/>
                </mxCell>
                <mxCell id="87" value="" style="group" vertex="1" connectable="0" parent="1">
                    <mxGeometry x="60" y="1310" width="600" height="90" as="geometry"/>
                </mxCell>
                <mxCell id="93" value="" style="group" vertex="1" connectable="0" parent="87">
                    <mxGeometry y="30" width="600" height="60" as="geometry"/>
                </mxCell>
                <mxCell id="81" value="&lt;u&gt;PUBLISHER_ID&lt;/u&gt;" style="rounded=0;whiteSpace=wrap;html=1;" vertex="1" parent="93">
                    <mxGeometry width="120" height="60" as="geometry"/>
                </mxCell>
                <mxCell id="82" value="PUBLISHER_NAME" style="rounded=0;whiteSpace=wrap;html=1;" vertex="1" parent="93">
                    <mxGeometry x="120" width="120" height="60" as="geometry"/>
                </mxCell>
                <mxCell id="83" value="ADDRESS" style="rounded=0;whiteSpace=wrap;html=1;" vertex="1" parent="93">
                    <mxGeometry x="240" width="120" height="60" as="geometry"/>
                </mxCell>
                <mxCell id="84" value="EMAIL_ID" style="rounded=0;whiteSpace=wrap;html=1;" vertex="1" parent="93">
                    <mxGeometry x="360" width="120" height="60" as="geometry"/>
                </mxCell>
                <mxCell id="85" value="CONTACT_NUMBER" style="rounded=0;whiteSpace=wrap;html=1;" vertex="1" parent="93">
                    <mxGeometry x="480" width="120" height="60" as="geometry"/>
                </mxCell>
                <mxCell id="90" style="edgeStyle=none;html=1;exitX=0.5;exitY=1;exitDx=0;exitDy=0;entryX=0;entryY=0.25;entryDx=0;entryDy=0;" edge="1" parent="1" source="88" target="2">
                    <mxGeometry relative="1" as="geometry">
                        <mxPoint x="60" y="240" as="targetPoint"/>
                        <Array as="points">
                            <mxPoint x="600" y="1570"/>
                            <mxPoint x="-90" y="1570"/>
                            <mxPoint x="-90" y="165"/>
                        </Array>
                    </mxGeometry>
                </mxCell>
                <mxCell id="88" value="PERSON_ID" style="rounded=0;whiteSpace=wrap;html=1;" vertex="1" parent="1">
                    <mxGeometry x="540" y="1476" width="120" height="60" as="geometry"/>
                </mxCell>
                <mxCell id="91" style="edgeStyle=none;html=1;exitX=0.5;exitY=1;exitDx=0;exitDy=0;entryX=0;entryY=0.5;entryDx=0;entryDy=0;" edge="1" parent="1" source="89" target="70">
                    <mxGeometry relative="1" as="geometry">
                        <Array as="points">
                            <mxPoint x="720" y="1610"/>
                            <mxPoint x="-40" y="1610"/>
                            <mxPoint x="-40" y="1220"/>
                        </Array>
                    </mxGeometry>
                </mxCell>
                <mxCell id="89" value="BOOK_ID" style="rounded=0;whiteSpace=wrap;html=1;" vertex="1" parent="1">
                    <mxGeometry x="660" y="1476" width="120" height="60" as="geometry"/>
                </mxCell>
                <mxCell id="104" value="" style="group" vertex="1" connectable="0" parent="1">
                    <mxGeometry x="830" y="430" width="360" height="90" as="geometry"/>
                </mxCell>
                <mxCell id="100" value="&lt;u&gt;AUTHOR_ID&lt;/u&gt;" style="rounded=0;whiteSpace=wrap;html=1;" vertex="1" parent="104">
                    <mxGeometry y="30" width="120" height="60" as="geometry"/>
                </mxCell>
                <mxCell id="101" value="AUTHOR" style="text;html=1;strokeColor=none;fillColor=none;align=center;verticalAlign=middle;whiteSpace=wrap;rounded=0;" vertex="1" parent="104">
                    <mxGeometry width="60" height="30" as="geometry"/>
                </mxCell>
                <mxCell id="102" value="PERSON_ID" style="rounded=0;whiteSpace=wrap;html=1;" vertex="1" parent="104">
                    <mxGeometry x="240" y="30" width="120" height="60" as="geometry"/>
                </mxCell>
                <mxCell id="103" value="AUTHOR_NAME" style="rounded=0;whiteSpace=wrap;html=1;" vertex="1" parent="104">
                    <mxGeometry x="120" y="30" width="120" height="60" as="geometry"/>
                </mxCell>
                <mxCell id="105" style="edgeStyle=none;html=1;exitX=0.5;exitY=0;exitDx=0;exitDy=0;entryX=0.5;entryY=1;entryDx=0;entryDy=0;" edge="1" parent="1" source="102" target="2">
                    <mxGeometry relative="1" as="geometry">
                        <Array as="points">
                            <mxPoint x="1130" y="250"/>
                            <mxPoint x="120" y="250"/>
                        </Array>
                    </mxGeometry>
                </mxCell>
                <mxCell id="86" value="PUBLISHER" style="text;html=1;strokeColor=none;fillColor=none;align=center;verticalAlign=middle;whiteSpace=wrap;rounded=0;" vertex="1" parent="1">
                    <mxGeometry x="60" y="1400" width="80" height="30" as="geometry"/>
                </mxCell>
                <mxCell id="106" style="edgeStyle=none;html=1;exitX=0.5;exitY=1;exitDx=0;exitDy=0;entryX=0.5;entryY=0;entryDx=0;entryDy=0;" edge="1" parent="1" source="92" target="81">
                    <mxGeometry relative="1" as="geometry">
                        <Array as="points">
                            <mxPoint x="480" y="1300"/>
                            <mxPoint x="120" y="1300"/>
                        </Array>
                    </mxGeometry>
                </mxCell>
                <mxCell id="111" style="edgeStyle=none;html=1;exitX=0.5;exitY=1;exitDx=0;exitDy=0;" edge="1" parent="1" source="107" target="70">
                    <mxGeometry relative="1" as="geometry"/>
                </mxCell>
                <mxCell id="107" value="&lt;u&gt;BOOK_ID&lt;/u&gt;" style="rounded=0;whiteSpace=wrap;html=1;" vertex="1" parent="1">
                    <mxGeometry x="60" y="1060" width="120" height="60" as="geometry"/>
                </mxCell>
                <mxCell id="112" style="edgeStyle=none;html=1;exitX=0.5;exitY=0;exitDx=0;exitDy=0;entryX=0.5;entryY=1;entryDx=0;entryDy=0;" edge="1" parent="1" source="108" target="100">
                    <mxGeometry relative="1" as="geometry">
                        <Array as="points">
                            <mxPoint x="240" y="920"/>
                            <mxPoint x="890" y="920"/>
                        </Array>
                    </mxGeometry>
                </mxCell>
                <mxCell id="108" value="&lt;u&gt;AUTHOR_ID&lt;/u&gt;" style="rounded=0;whiteSpace=wrap;html=1;" vertex="1" parent="1">
                    <mxGeometry x="180" y="1060" width="120" height="60" as="geometry"/>
                </mxCell>
                <mxCell id="109" value="WRITES_BOOK" style="text;html=1;strokeColor=none;fillColor=none;align=center;verticalAlign=middle;whiteSpace=wrap;rounded=0;" vertex="1" parent="1">
                    <mxGeometry x="60" y="1030" width="100" height="30" as="geometry"/>
                </mxCell>
                <mxCell id="110" value="" style="group" vertex="1" connectable="0" parent="1">
                    <mxGeometry x="60" y="1190" width="480" height="90" as="geometry"/>
                </mxCell>
                <mxCell id="70" value="&lt;u&gt;BOOK_ID&lt;/u&gt;" style="rounded=0;whiteSpace=wrap;html=1;" vertex="1" parent="110">
                    <mxGeometry width="120" height="60" as="geometry"/>
                </mxCell>
                <mxCell id="71" value="BOOK_TITLE" style="rounded=0;whiteSpace=wrap;html=1;" vertex="1" parent="110">
                    <mxGeometry x="120" width="120" height="60" as="geometry"/>
                </mxCell>
                <mxCell id="73" value="EDITION" style="rounded=0;whiteSpace=wrap;html=1;" vertex="1" parent="110">
                    <mxGeometry x="240" width="120" height="60" as="geometry"/>
                </mxCell>
                <mxCell id="75" value="BOOKS" style="text;html=1;strokeColor=none;fillColor=none;align=center;verticalAlign=middle;whiteSpace=wrap;rounded=0;" vertex="1" parent="110">
                    <mxGeometry y="60" width="60" height="30" as="geometry"/>
                </mxCell>
                <mxCell id="92" value="PUBLISHER_ID" style="rounded=0;whiteSpace=wrap;html=1;" vertex="1" parent="110">
                    <mxGeometry x="360" width="120" height="60" as="geometry"/>
                </mxCell>
                <mxCell id="113" value="&lt;u&gt;CARD_ID&lt;/u&gt;" style="rounded=0;whiteSpace=wrap;html=1;" vertex="1" parent="1">
                    <mxGeometry x="830" y="1030" width="120" height="60" as="geometry"/>
                </mxCell>
                <mxCell id="114" value="DATE_OF_ISSUE" style="rounded=0;whiteSpace=wrap;html=1;" vertex="1" parent="1">
                    <mxGeometry x="950" y="1030" width="120" height="60" as="geometry"/>
                </mxCell>
                <mxCell id="115" value="MEMBERSHIP_LEVEL" style="rounded=0;whiteSpace=wrap;html=1;" vertex="1" parent="1">
                    <mxGeometry x="1070" y="1030" width="140" height="60" as="geometry"/>
                </mxCell>
                <mxCell id="116" value="LIBRARY_CARD" style="text;html=1;strokeColor=none;fillColor=none;align=center;verticalAlign=middle;whiteSpace=wrap;rounded=0;" vertex="1" parent="1">
                    <mxGeometry x="830" y="1000" width="100" height="30" as="geometry"/>
                </mxCell>
                <mxCell id="151" style="edgeStyle=none;html=1;exitX=0;exitY=0.5;exitDx=0;exitDy=0;entryX=0;entryY=0.5;entryDx=0;entryDy=0;" edge="1" parent="1" source="120" target="113">
                    <mxGeometry relative="1" as="geometry">
                        <Array as="points">
                            <mxPoint x="790" y="1380"/>
                            <mxPoint x="790" y="1060"/>
                        </Array>
                    </mxGeometry>
                </mxCell>
                <mxCell id="120" value="&lt;u&gt;CARD_ID&lt;/u&gt;" style="rounded=0;whiteSpace=wrap;html=1;" vertex="1" parent="1">
                    <mxGeometry x="850" y="1350" width="120" height="60" as="geometry"/>
                </mxCell>
                <mxCell id="153" style="edgeStyle=none;html=1;exitX=0.5;exitY=1;exitDx=0;exitDy=0;entryX=0.5;entryY=0;entryDx=0;entryDy=0;" edge="1" parent="1" source="121" target="117">
                    <mxGeometry relative="1" as="geometry">
                        <Array as="points">
                            <mxPoint x="1045" y="1440"/>
                            <mxPoint x="910" y="1440"/>
                        </Array>
                    </mxGeometry>
                </mxCell>
                <mxCell id="121" value="&lt;u&gt;PROMOTION_CODE&lt;/u&gt;" style="rounded=0;whiteSpace=wrap;html=1;" vertex="1" parent="1">
                    <mxGeometry x="970" y="1350" width="150" height="60" as="geometry"/>
                </mxCell>
                <mxCell id="122" value="LIBRARY_CARD_PROMOTIONS" style="text;html=1;strokeColor=none;fillColor=none;align=center;verticalAlign=middle;whiteSpace=wrap;rounded=0;" vertex="1" parent="1">
                    <mxGeometry x="850" y="1320" width="190" height="28" as="geometry"/>
                </mxCell>
                <mxCell id="127" style="edgeStyle=none;html=1;exitX=0.5;exitY=0;exitDx=0;exitDy=0;entryX=0.5;entryY=1;entryDx=0;entryDy=0;" edge="1" parent="1" source="123" target="113">
                    <mxGeometry relative="1" as="geometry">
                        <Array as="points">
                            <mxPoint x="1010" y="1120"/>
                            <mxPoint x="890" y="1120"/>
                        </Array>
                    </mxGeometry>
                </mxCell>
                <mxCell id="123" value="&lt;u&gt;CARD_ID&lt;/u&gt;" style="rounded=0;whiteSpace=wrap;html=1;" vertex="1" parent="1">
                    <mxGeometry x="950" y="1160" width="120" height="60" as="geometry"/>
                </mxCell>
                <mxCell id="124" value="SILVER" style="text;html=1;strokeColor=none;fillColor=none;align=center;verticalAlign=middle;whiteSpace=wrap;rounded=0;" vertex="1" parent="1">
                    <mxGeometry x="950" y="1220" width="60" height="30" as="geometry"/>
                </mxCell>
                <mxCell id="128" style="edgeStyle=none;html=1;exitX=0.5;exitY=0;exitDx=0;exitDy=0;" edge="1" parent="1" source="125">
                    <mxGeometry relative="1" as="geometry">
                        <mxPoint x="890" y="1090" as="targetPoint"/>
                        <Array as="points">
                            <mxPoint x="1150" y="1120"/>
                            <mxPoint x="890" y="1120"/>
                        </Array>
                    </mxGeometry>
                </mxCell>
                <mxCell id="125" value="&lt;u&gt;CARD_ID&lt;/u&gt;" style="rounded=0;whiteSpace=wrap;html=1;" vertex="1" parent="1">
                    <mxGeometry x="1090" y="1160" width="120" height="60" as="geometry"/>
                </mxCell>
                <mxCell id="126" value="GOLD" style="text;html=1;strokeColor=none;fillColor=none;align=center;verticalAlign=middle;whiteSpace=wrap;rounded=0;" vertex="1" parent="1">
                    <mxGeometry x="1090" y="1220" width="60" height="30" as="geometry"/>
                </mxCell>
                <mxCell id="137" style="edgeStyle=none;html=1;exitX=0.5;exitY=0;exitDx=0;exitDy=0;entryX=1;entryY=0.5;entryDx=0;entryDy=0;" edge="1" parent="1" source="132" target="125">
                    <mxGeometry relative="1" as="geometry">
                        <Array as="points">
                            <mxPoint x="1470" y="1190"/>
                        </Array>
                    </mxGeometry>
                </mxCell>
                <mxCell id="148" style="edgeStyle=none;html=1;exitX=1;exitY=0.5;exitDx=0;exitDy=0;" edge="1" parent="1" source="146">
                    <mxGeometry relative="1" as="geometry">
                        <mxPoint x="830" y="1060" as="targetPoint"/>
                        <Array as="points">
                            <mxPoint x="350" y="490"/>
                            <mxPoint x="350" y="560"/>
                            <mxPoint x="790" y="560"/>
                            <mxPoint x="790" y="1060"/>
                        </Array>
                    </mxGeometry>
                </mxCell>
                <mxCell id="146" value="&lt;u&gt;CARD_ID&lt;/u&gt;" style="rounded=0;whiteSpace=wrap;html=1;" vertex="1" parent="1">
                    <mxGeometry x="180" y="460" width="120" height="60" as="geometry"/>
                </mxCell>
                <mxCell id="149" value="CATEGORY" style="rounded=0;whiteSpace=wrap;html=1;" vertex="1" parent="1">
                    <mxGeometry x="540" y="1190" width="120" height="60" as="geometry"/>
                </mxCell>
                <mxCell id="117" value="&lt;u&gt;PROMOTION_CODE&lt;/u&gt;" style="rounded=0;whiteSpace=wrap;html=1;" vertex="1" parent="1">
                    <mxGeometry x="850" y="1486" width="120" height="60" as="geometry"/>
                </mxCell>
                <mxCell id="118" value="PROMOTION_DESCRIPTION" style="rounded=0;whiteSpace=wrap;html=1;" vertex="1" parent="1">
                    <mxGeometry x="970" y="1486" width="180" height="60" as="geometry"/>
                </mxCell>
                <mxCell id="119" value="PROMOTION" style="text;html=1;strokeColor=none;fillColor=none;align=center;verticalAlign=middle;whiteSpace=wrap;rounded=0;" vertex="1" parent="1">
                    <mxGeometry x="850" y="1546" width="80" height="30" as="geometry"/>
                </mxCell>
                <mxCell id="164" style="edgeStyle=none;html=1;exitX=0;exitY=0.5;exitDx=0;exitDy=0;entryX=0;entryY=0.5;entryDx=0;entryDy=0;" edge="1" parent="1" source="154" target="70">
                    <mxGeometry relative="1" as="geometry">
                        <Array as="points">
                            <mxPoint x="-60" y="1770"/>
                            <mxPoint x="-60" y="1220"/>
                        </Array>
                    </mxGeometry>
                </mxCell>
                <mxCell id="154" value="&lt;u&gt;BOOK_ID&lt;/u&gt;" style="rounded=0;whiteSpace=wrap;html=1;" vertex="1" parent="1">
                    <mxGeometry x="60" y="1740" width="120" height="60" as="geometry"/>
                </mxCell>
                <mxCell id="165" style="edgeStyle=none;html=1;exitX=0.5;exitY=0;exitDx=0;exitDy=0;entryX=0;entryY=0.5;entryDx=0;entryDy=0;" edge="1" parent="1" source="155" target="52">
                    <mxGeometry relative="1" as="geometry">
                        <Array as="points">
                            <mxPoint x="240" y="1670"/>
                            <mxPoint x="-130" y="1670"/>
                            <mxPoint x="-130" y="770"/>
                        </Array>
                    </mxGeometry>
                </mxCell>
                <mxCell id="155" value="&lt;u&gt;RECEPTIONIST_ID&lt;/u&gt;" style="rounded=0;whiteSpace=wrap;html=1;" vertex="1" parent="1">
                    <mxGeometry x="180" y="1740" width="120" height="60" as="geometry"/>
                </mxCell>
                <mxCell id="166" style="edgeStyle=none;html=1;exitX=0.5;exitY=0;exitDx=0;exitDy=0;entryX=0;entryY=0.75;entryDx=0;entryDy=0;" edge="1" parent="1" source="156" target="42">
                    <mxGeometry relative="1" as="geometry">
                        <mxPoint x="-170" y="580" as="targetPoint"/>
                        <Array as="points">
                            <mxPoint x="360" y="1640"/>
                            <mxPoint x="-160" y="1640"/>
                            <mxPoint x="-160" y="505"/>
                        </Array>
                    </mxGeometry>
                </mxCell>
                <mxCell id="156" value="&lt;u&gt;MEMBER_ID&lt;/u&gt;" style="rounded=0;whiteSpace=wrap;html=1;" vertex="1" parent="1">
                    <mxGeometry x="300" y="1740" width="120" height="60" as="geometry"/>
                </mxCell>
                <mxCell id="157" value="&lt;u&gt;ISSUE_DATE&lt;/u&gt;" style="rounded=0;whiteSpace=wrap;html=1;" vertex="1" parent="1">
                    <mxGeometry x="420" y="1740" width="120" height="60" as="geometry"/>
                </mxCell>
                <mxCell id="158" value="DUE_DATE" style="rounded=0;whiteSpace=wrap;html=1;" vertex="1" parent="1">
                    <mxGeometry x="540" y="1740" width="120" height="60" as="geometry"/>
                </mxCell>
                <mxCell id="159" value="PAYMENT_ID" style="rounded=0;whiteSpace=wrap;html=1;" vertex="1" parent="1">
                    <mxGeometry x="660" y="1740" width="120" height="60" as="geometry"/>
                </mxCell>
                <mxCell id="160" value="PAYMENT_METHOD" style="rounded=0;whiteSpace=wrap;html=1;" vertex="1" parent="1">
                    <mxGeometry x="780" y="1740" width="120" height="60" as="geometry"/>
                </mxCell>
                <mxCell id="161" value="PAYMENT_TIME" style="rounded=0;whiteSpace=wrap;html=1;" vertex="1" parent="1">
                    <mxGeometry x="900" y="1740" width="120" height="60" as="geometry"/>
                </mxCell>
                <mxCell id="162" value="AMOUNT" style="rounded=0;whiteSpace=wrap;html=1;" vertex="1" parent="1">
                    <mxGeometry x="1020" y="1740" width="120" height="60" as="geometry"/>
                </mxCell>
                <mxCell id="163" value="BOOK_ISSUE" style="text;html=1;strokeColor=none;fillColor=none;align=center;verticalAlign=middle;whiteSpace=wrap;rounded=0;" vertex="1" parent="1">
                    <mxGeometry x="60" y="1710" width="80" height="30" as="geometry"/>
                </mxCell>
                <mxCell id="167" value="DATE" style="rounded=0;whiteSpace=wrap;html=1;" vertex="1" parent="1">
                    <mxGeometry x="506" y="740" width="120" height="60" as="geometry"/>
                </mxCell>
                <mxCell id="168" value="CATEGORY" style="rounded=0;whiteSpace=wrap;html=1;" vertex="1" parent="1">
                    <mxGeometry x="626" y="740" width="120" height="60" as="geometry"/>
                </mxCell>
                <mxCell id="169" value="" style="group" vertex="1" connectable="0" parent="1">
                    <mxGeometry x="1290" y="1210" width="660" height="90" as="geometry"/>
                </mxCell>
                <mxCell id="131" value="&lt;u&gt;GUEST_ID&lt;/u&gt;" style="rounded=0;whiteSpace=wrap;html=1;" vertex="1" parent="169">
                    <mxGeometry y="30" width="120" height="60" as="geometry"/>
                </mxCell>
                <mxCell id="132" value="&lt;u&gt;CARD_ID&lt;/u&gt;" style="rounded=0;whiteSpace=wrap;html=1;" vertex="1" parent="169">
                    <mxGeometry x="120" y="30" width="120" height="60" as="geometry"/>
                </mxCell>
                <mxCell id="133" value="GUEST_NAME" style="rounded=0;whiteSpace=wrap;html=1;" vertex="1" parent="169">
                    <mxGeometry x="240" y="30" width="140" height="60" as="geometry"/>
                </mxCell>
                <mxCell id="134" value="GUEST_LOG" style="text;html=1;strokeColor=none;fillColor=none;align=center;verticalAlign=middle;whiteSpace=wrap;rounded=0;" vertex="1" parent="169">
                    <mxGeometry width="110" height="30" as="geometry"/>
                </mxCell>
                <mxCell id="135" value="GUEST_ADDRESS&lt;span style=&quot;color: rgba(0 , 0 , 0 , 0) ; font-family: monospace ; font-size: 0px&quot;&gt;%3CmxGraphModel%3E%3Croot%3E%3CmxCell%20id%3D%220%22%2F%3E%3CmxCell%20id%3D%221%22%20parent%3D%220%22%2F%3E%3CmxCell%20id%3D%222%22%20value%3D%22GUEST_NAME%22%20style%3D%22rounded%3D0%3BwhiteSpace%3Dwrap%3Bhtml%3D1%3B%22%20vertex%3D%221%22%20parent%3D%221%22%3E%3CmxGeometry%20x%3D%221530%22%20y%3D%221220%22%20width%3D%22140%22%20height%3D%2260%22%20as%3D%22geometry%22%2F%3E%3C%2FmxCell%3E%3C%2Froot%3E%3C%2FmxGraphModel%3E&lt;/span&gt;" style="rounded=0;whiteSpace=wrap;html=1;" vertex="1" parent="169">
                    <mxGeometry x="380" y="30" width="140" height="60" as="geometry"/>
                </mxCell>
                <mxCell id="136" value="GUEST_CONTACT" style="rounded=0;whiteSpace=wrap;html=1;" vertex="1" parent="169">
                    <mxGeometry x="520" y="30" width="140" height="60" as="geometry"/>
                </mxCell>
            </root>
        </mxGraphModel>
    </diagram>
</mxfile>